<mxfile host="app.diagrams.net" agent="Mozilla/5.0 (Windows NT 10.0; Win64; x64) AppleWebKit/537.36 (KHTML, like Gecko) Chrome/141.0.0.0 Safari/537.36" version="28.2.7">
  <diagram name="Page-1" id="ansTKSMCNcZZTghkfmkn">
    <mxGraphModel dx="1489" dy="1853" grid="1" gridSize="10" guides="1" tooltips="1" connect="1" arrows="1" fold="1" page="1" pageScale="1" pageWidth="850" pageHeight="1100" math="0" shadow="0">
      <root>
        <mxCell id="0" />
        <mxCell id="1" parent="0" />
        <mxCell id="-t6Em9tvoNGk4JWkDO-d-1" value="User" style="swimlane;childLayout=stackLayout;horizontal=1;startSize=50;horizontalStack=0;rounded=1;fontSize=14;fontStyle=0;strokeWidth=2;resizeParent=0;resizeLast=1;shadow=0;dashed=0;align=center;arcSize=4;whiteSpace=wrap;html=1;" parent="1" vertex="1">
          <mxGeometry x="240" y="150" width="160" height="180" as="geometry">
            <mxRectangle x="240" y="150" width="70" height="50" as="alternateBounds" />
          </mxGeometry>
        </mxCell>
        <mxCell id="-t6Em9tvoNGk4JWkDO-d-2" value="*user_id&lt;br&gt;+first_name&lt;div&gt;+last_name&lt;/div&gt;&lt;div&gt;+email&lt;/div&gt;&lt;div&gt;+password&lt;/div&gt;&lt;div&gt;+phone_num&lt;/div&gt;&lt;div&gt;+address&lt;/div&gt;&lt;div&gt;&lt;br&gt;&lt;/div&gt;" style="align=left;strokeColor=none;fillColor=none;spacingLeft=4;spacingRight=4;fontSize=12;verticalAlign=top;resizable=0;rotatable=0;part=1;html=1;whiteSpace=wrap;" parent="-t6Em9tvoNGk4JWkDO-d-1" vertex="1">
          <mxGeometry y="50" width="160" height="130" as="geometry" />
        </mxCell>
        <mxCell id="-t6Em9tvoNGk4JWkDO-d-3" value="Restaurant" style="swimlane;childLayout=stackLayout;horizontal=1;startSize=50;horizontalStack=0;rounded=1;fontSize=14;fontStyle=0;strokeWidth=2;resizeParent=0;resizeLast=1;shadow=0;dashed=0;align=center;arcSize=4;whiteSpace=wrap;html=1;" parent="1" vertex="1">
          <mxGeometry x="1070" y="165" width="160" height="190" as="geometry">
            <mxRectangle x="930" y="150" width="110" height="50" as="alternateBounds" />
          </mxGeometry>
        </mxCell>
        <mxCell id="-t6Em9tvoNGk4JWkDO-d-4" value="*restaurant_id&lt;br&gt;+name&lt;br&gt;+address&lt;div&gt;+phone_num&lt;/div&gt;&lt;div&gt;+worktime_start&lt;/div&gt;&lt;div&gt;+worktime_end&lt;/div&gt;" style="align=left;strokeColor=none;fillColor=none;spacingLeft=4;spacingRight=4;fontSize=12;verticalAlign=top;resizable=0;rotatable=0;part=1;html=1;whiteSpace=wrap;" parent="-t6Em9tvoNGk4JWkDO-d-3" vertex="1">
          <mxGeometry y="50" width="160" height="140" as="geometry" />
        </mxCell>
        <mxCell id="-t6Em9tvoNGk4JWkDO-d-5" value="Menu Item" style="swimlane;childLayout=stackLayout;horizontal=1;startSize=50;horizontalStack=0;rounded=1;fontSize=14;fontStyle=0;strokeWidth=2;resizeParent=0;resizeLast=1;shadow=0;dashed=0;align=center;arcSize=4;whiteSpace=wrap;html=1;" parent="1" vertex="1">
          <mxGeometry x="1080" y="460" width="160" height="140" as="geometry">
            <mxRectangle x="920" y="430" width="110" height="50" as="alternateBounds" />
          </mxGeometry>
        </mxCell>
        <mxCell id="-t6Em9tvoNGk4JWkDO-d-6" value="*restaurant_id&lt;div&gt;*menu_item_id&lt;br&gt;+name_of_dish&lt;br&gt;+&lt;span style=&quot;text-align: center;&quot;&gt;ingredients&lt;/span&gt;&lt;div&gt;&lt;span style=&quot;text-align: center;&quot;&gt;+price&lt;/span&gt;&lt;/div&gt;&lt;/div&gt;" style="align=left;strokeColor=none;fillColor=none;spacingLeft=4;spacingRight=4;fontSize=12;verticalAlign=top;resizable=0;rotatable=0;part=1;html=1;whiteSpace=wrap;" parent="-t6Em9tvoNGk4JWkDO-d-5" vertex="1">
          <mxGeometry y="50" width="160" height="90" as="geometry" />
        </mxCell>
        <mxCell id="-t6Em9tvoNGk4JWkDO-d-7" value="Order Item" style="swimlane;childLayout=stackLayout;horizontal=1;startSize=50;horizontalStack=0;rounded=1;fontSize=14;fontStyle=0;strokeWidth=2;resizeParent=0;resizeLast=1;shadow=0;dashed=0;align=center;arcSize=4;whiteSpace=wrap;html=1;" parent="1" vertex="1">
          <mxGeometry x="710" y="500" width="160" height="170" as="geometry">
            <mxRectangle x="565" y="500" width="110" height="50" as="alternateBounds" />
          </mxGeometry>
        </mxCell>
        <mxCell id="-t6Em9tvoNGk4JWkDO-d-8" value="*order_id&lt;div&gt;*menu_item_id&lt;/div&gt;&lt;div&gt;*restaurant_id&lt;br&gt;+quantity&lt;br&gt;+subtotal&lt;/div&gt;&lt;div&gt;+special_request&lt;/div&gt;" style="align=left;strokeColor=none;fillColor=none;spacingLeft=4;spacingRight=4;fontSize=12;verticalAlign=top;resizable=0;rotatable=0;part=1;html=1;whiteSpace=wrap;" parent="-t6Em9tvoNGk4JWkDO-d-7" vertex="1">
          <mxGeometry y="50" width="160" height="120" as="geometry" />
        </mxCell>
        <mxCell id="-t6Em9tvoNGk4JWkDO-d-9" value="Courier" style="swimlane;childLayout=stackLayout;horizontal=1;startSize=50;horizontalStack=0;rounded=1;fontSize=14;fontStyle=0;strokeWidth=2;resizeParent=0;resizeLast=1;shadow=0;dashed=0;align=center;arcSize=4;whiteSpace=wrap;html=1;" parent="1" vertex="1">
          <mxGeometry x="1070" y="-150" width="160" height="170" as="geometry" />
        </mxCell>
        <mxCell id="-t6Em9tvoNGk4JWkDO-d-10" value="*courier_id&lt;br&gt;+first_name&lt;br&gt;+last_name&lt;div&gt;+phone_number&lt;/div&gt;&lt;div&gt;+viecle_type&lt;/div&gt;&lt;div&gt;+delivery_tax&lt;/div&gt;" style="align=left;strokeColor=none;fillColor=none;spacingLeft=4;spacingRight=4;fontSize=12;verticalAlign=top;resizable=0;rotatable=0;part=1;html=1;whiteSpace=wrap;" parent="-t6Em9tvoNGk4JWkDO-d-9" vertex="1">
          <mxGeometry y="50" width="160" height="120" as="geometry" />
        </mxCell>
        <mxCell id="-t6Em9tvoNGk4JWkDO-d-11" value="Order" style="swimlane;childLayout=stackLayout;horizontal=1;startSize=50;horizontalStack=0;rounded=1;fontSize=14;fontStyle=0;strokeWidth=2;resizeParent=0;resizeLast=1;shadow=0;dashed=0;align=center;arcSize=4;whiteSpace=wrap;html=1;" parent="1" vertex="1">
          <mxGeometry x="650" y="130" width="160" height="260" as="geometry">
            <mxRectangle x="580" y="150" width="80" height="50" as="alternateBounds" />
          </mxGeometry>
        </mxCell>
        <mxCell id="-t6Em9tvoNGk4JWkDO-d-12" value="*order_id&lt;div&gt;+order_number&lt;br&gt;&lt;div&gt;+restaurant_id&lt;br&gt;+user_id&lt;/div&gt;&lt;div&gt;+courier_id&lt;/div&gt;&lt;div&gt;&lt;div&gt;+created_at&lt;/div&gt;&lt;div&gt;+total_sum&lt;/div&gt;&lt;div&gt;+delivery_time&lt;/div&gt;&lt;div&gt;+delivery_address&lt;/div&gt;&lt;/div&gt;&lt;/div&gt;" style="align=left;strokeColor=none;fillColor=none;spacingLeft=4;spacingRight=4;fontSize=12;verticalAlign=top;resizable=0;rotatable=0;part=1;html=1;whiteSpace=wrap;" parent="-t6Em9tvoNGk4JWkDO-d-11" vertex="1">
          <mxGeometry y="50" width="160" height="210" as="geometry" />
        </mxCell>
        <mxCell id="-t6Em9tvoNGk4JWkDO-d-13" value="Payment" style="swimlane;childLayout=stackLayout;horizontal=1;startSize=50;horizontalStack=0;rounded=1;fontSize=14;fontStyle=0;strokeWidth=2;resizeParent=0;resizeLast=1;shadow=0;dashed=0;align=center;arcSize=4;whiteSpace=wrap;html=1;" parent="1" vertex="1">
          <mxGeometry x="410" y="-140" width="160" height="180" as="geometry">
            <mxRectangle x="575" y="-240" width="100" height="50" as="alternateBounds" />
          </mxGeometry>
        </mxCell>
        <mxCell id="-t6Em9tvoNGk4JWkDO-d-14" value="*payment_id&lt;br&gt;+order_id&lt;div&gt;+lpayment_method&lt;/div&gt;&lt;div&gt;+payment_status&lt;/div&gt;&lt;div&gt;+payment_date_and_time&lt;/div&gt;&lt;div&gt;+payment_amount&lt;/div&gt;&lt;div&gt;+tip_amount&lt;/div&gt;&lt;div&gt;&lt;br&gt;&lt;/div&gt;" style="align=left;strokeColor=none;fillColor=none;spacingLeft=4;spacingRight=4;fontSize=12;verticalAlign=top;resizable=0;rotatable=0;part=1;html=1;whiteSpace=wrap;" parent="-t6Em9tvoNGk4JWkDO-d-13" vertex="1">
          <mxGeometry y="50" width="160" height="130" as="geometry" />
        </mxCell>
        <mxCell id="b57ZG6nOpW8SJ0yAMGpw-2" value="" style="edgeStyle=entityRelationEdgeStyle;fontSize=12;html=1;endArrow=ERzeroToOne;startArrow=ERmandOne;rounded=0;exitX=1;exitY=0.25;exitDx=0;exitDy=0;entryX=0;entryY=0.25;entryDx=0;entryDy=0;startSize=16;endSize=16;" parent="1" source="-t6Em9tvoNGk4JWkDO-d-14" target="-t6Em9tvoNGk4JWkDO-d-12" edge="1">
          <mxGeometry width="100" height="100" relative="1" as="geometry">
            <mxPoint x="680" y="40" as="sourcePoint" />
            <mxPoint x="600" y="170" as="targetPoint" />
          </mxGeometry>
        </mxCell>
        <mxCell id="BTD3vn8jjisWTk4Lr7_3-6" value="" style="edgeStyle=entityRelationEdgeStyle;fontSize=12;html=1;endArrow=ERzeroToMany;startArrow=ERmandOne;rounded=0;exitX=0.992;exitY=0.44;exitDx=0;exitDy=0;entryX=0.004;entryY=0.558;entryDx=0;entryDy=0;entryPerimeter=0;startSize=16;endSize=16;exitPerimeter=0;" edge="1" parent="1" source="-t6Em9tvoNGk4JWkDO-d-2" target="-t6Em9tvoNGk4JWkDO-d-12">
          <mxGeometry width="100" height="100" relative="1" as="geometry">
            <mxPoint x="400" y="259.9999999999998" as="sourcePoint" />
            <mxPoint x="660" y="292.5499999999997" as="targetPoint" />
          </mxGeometry>
        </mxCell>
        <mxCell id="BTD3vn8jjisWTk4Lr7_3-8" value="" style="edgeStyle=entityRelationEdgeStyle;fontSize=12;html=1;endArrow=ERoneToMany;startArrow=ERmandOne;rounded=0;startSize=16;endSize=16;" edge="1" parent="1" source="-t6Em9tvoNGk4JWkDO-d-4" target="-t6Em9tvoNGk4JWkDO-d-6">
          <mxGeometry width="100" height="100" relative="1" as="geometry">
            <mxPoint x="1630" y="410" as="sourcePoint" />
            <mxPoint x="1340" y="475" as="targetPoint" />
          </mxGeometry>
        </mxCell>
        <mxCell id="BTD3vn8jjisWTk4Lr7_3-9" value="" style="edgeStyle=entityRelationEdgeStyle;fontSize=12;html=1;endArrow=ERzeroToMany;startArrow=ERmandOne;rounded=0;exitX=0;exitY=0.5;exitDx=0;exitDy=0;entryX=1;entryY=0.5;entryDx=0;entryDy=0;startSize=16;endSize=16;" edge="1" parent="1" source="-t6Em9tvoNGk4JWkDO-d-4" target="-t6Em9tvoNGk4JWkDO-d-12">
          <mxGeometry width="100" height="100" relative="1" as="geometry">
            <mxPoint x="800" y="310" as="sourcePoint" />
            <mxPoint x="900" y="210" as="targetPoint" />
          </mxGeometry>
        </mxCell>
        <mxCell id="BTD3vn8jjisWTk4Lr7_3-10" value="" style="edgeStyle=entityRelationEdgeStyle;fontSize=12;html=1;endArrow=ERzeroToMany;startArrow=ERmandOne;rounded=0;exitX=0;exitY=0.5;exitDx=0;exitDy=0;entryX=0.994;entryY=0.195;entryDx=0;entryDy=0;startSize=16;endSize=16;entryPerimeter=0;" edge="1" parent="1" source="-t6Em9tvoNGk4JWkDO-d-10" target="-t6Em9tvoNGk4JWkDO-d-12">
          <mxGeometry width="100" height="100" relative="1" as="geometry">
            <mxPoint x="1170" y="-30" as="sourcePoint" />
            <mxPoint x="920" y="-15" as="targetPoint" />
          </mxGeometry>
        </mxCell>
        <mxCell id="BTD3vn8jjisWTk4Lr7_3-15" value="" style="edgeStyle=entityRelationEdgeStyle;fontSize=12;html=1;endArrow=ERmany;startArrow=ERmany;rounded=0;exitX=1;exitY=0.25;exitDx=0;exitDy=0;startSize=16;endSize=16;" edge="1" parent="1" source="-t6Em9tvoNGk4JWkDO-d-4" target="BTD3vn8jjisWTk4Lr7_3-13">
          <mxGeometry width="100" height="100" relative="1" as="geometry">
            <mxPoint x="1230" y="250" as="sourcePoint" />
            <mxPoint x="1370" y="200" as="targetPoint" />
            <Array as="points" />
          </mxGeometry>
        </mxCell>
        <mxCell id="BTD3vn8jjisWTk4Lr7_3-13" value="Category" style="swimlane;childLayout=stackLayout;horizontal=1;startSize=50;horizontalStack=0;rounded=1;fontSize=14;fontStyle=0;strokeWidth=2;resizeParent=0;resizeLast=1;shadow=0;dashed=0;align=center;arcSize=4;whiteSpace=wrap;html=1;" vertex="1" parent="1">
          <mxGeometry x="1410" y="130" width="160" height="120" as="geometry" />
        </mxCell>
        <mxCell id="BTD3vn8jjisWTk4Lr7_3-14" value="*category_id&lt;br&gt;+name&lt;div&gt;&lt;br/&gt;&lt;/div&gt;" style="align=left;strokeColor=none;fillColor=none;spacingLeft=4;spacingRight=4;fontSize=12;verticalAlign=top;resizable=0;rotatable=0;part=1;html=1;whiteSpace=wrap;" vertex="1" parent="BTD3vn8jjisWTk4Lr7_3-13">
          <mxGeometry y="50" width="160" height="70" as="geometry" />
        </mxCell>
        <mxCell id="BTD3vn8jjisWTk4Lr7_3-16" value="" style="edgeStyle=entityRelationEdgeStyle;fontSize=12;html=1;endArrow=ERoneToMany;startArrow=ERoneToMany;rounded=0;exitX=1.013;exitY=0.158;exitDx=0;exitDy=0;exitPerimeter=0;startSize=16;endSize=16;" edge="1" parent="1" source="-t6Em9tvoNGk4JWkDO-d-8">
          <mxGeometry width="100" height="100" relative="1" as="geometry">
            <mxPoint x="500" y="560" as="sourcePoint" />
            <mxPoint x="650" y="350" as="targetPoint" />
            <Array as="points">
              <mxPoint x="540" y="600" />
              <mxPoint x="670" y="390" />
              <mxPoint x="661" y="400" />
            </Array>
          </mxGeometry>
        </mxCell>
        <mxCell id="BTD3vn8jjisWTk4Lr7_3-18" value="" style="edgeStyle=entityRelationEdgeStyle;fontSize=12;html=1;endArrow=ERoneToMany;startArrow=ERoneToMany;rounded=0;exitX=0;exitY=0.75;exitDx=0;exitDy=0;startSize=16;endSize=16;entryX=1;entryY=0.5;entryDx=0;entryDy=0;" edge="1" parent="1" source="-t6Em9tvoNGk4JWkDO-d-6" target="-t6Em9tvoNGk4JWkDO-d-8">
          <mxGeometry width="100" height="100" relative="1" as="geometry">
            <mxPoint x="1312" y="929" as="sourcePoint" />
            <mxPoint x="1090" y="710" as="targetPoint" />
            <Array as="points">
              <mxPoint x="980" y="960" />
              <mxPoint x="1110" y="750" />
              <mxPoint x="1101" y="760" />
            </Array>
          </mxGeometry>
        </mxCell>
      </root>
    </mxGraphModel>
  </diagram>
</mxfile>
